<?xml version="1.0" encoding="UTF-8"?>
<svg version="1.1" viewBox="0 0 32 32" xmlns="http://www.w3.org/2000/svg">
    <g transform="translate(-2.343 -35.1)">
        <path d="m23.36 41.1c2.31 5.431 2.831 12.94 3.603 19.38 3.004-5.858 8.883-19.15 6.22-23.02-3.253-4.187-8.141 1.862-9.823 3.647z" fill="#3e66b2"/>
        <path d="m17.87 35.1c-0.6307-0.01525-1.359 0.1649-2.241 0.6016-3.373 2.326-5.996 6.452-7.303 9.565-0.842 2.264 0.5984 4.216 1.131 4.773-4.92-1.501-10.02 5.919-5.135 8.87 3.814 2.305 9.961 5.453 13.38 6.295-1.133 0.4326-2.236 0.7573-3.353 1.143-1.411 0.487 5.321 1.482 9.288-0.1373 2.417-0.9863 6.682-3.459 7.953-7.017 0.237 0.08979 0.49 0.136 0.7452 0.1361 1.11-1.9e-4 2.01-0.8532 2.01-1.905 3.5e-5 -1.052-0.8999-1.905-2.01-1.905-1.11-3.3e-5 -2.011 0.8531-2.011 1.905 4.35e-4 0.3137 0.08263 0.6224 0.2392 0.8987-1.14 0.8324-2.311 1.793-3.478 2.499-0.7508-8.553-1.322-17.41-5.883-23.43-1.03-1.275-1.944-2.254-3.332-2.288z" fill="#5082e5"/>
        <path d="m14.02 45.25 9.941 5.311-4.709 9.475c-0.0058 0.01156-0.0117 0.01626-0.01747 0.02682-0.01396 0.03127-0.02782 0.06322-0.04208 0.09189-0.5806 1.168-1.765 1.48-2.558 1.547l-0.0027 2.08e-4 -0.0033 3.89e-4c-0.5948 0.0807-1.25-0.01207-1.85-0.3327-0.4134-0.2209-0.7826-0.5566-0.9948-1.028-0.2122-0.4717-0.2169-1.091 0.05144-1.631 0.5807-1.168 1.765-1.481 2.559-1.547l0.0026-2.26e-4 0.0033-3.89e-4c0.5948-0.0807 1.25 0.01207 1.85 0.3327 0.08403 0.04489 0.1532 0.1167 0.2327 0.1712l2.733-5.498-6.864-3.667-3.502 7.046c-0.0036 0.0077-0.01165 0.01669-0.01577 0.02448-0.01436 0.03221-0.0287 0.06495-0.04334 0.09445-0.5807 1.168-1.765 1.48-2.558 1.547l-0.0026 2.24e-4 -0.00329 3.88e-4c-0.5949 0.08075-1.25-0.01201-1.85-0.3326-0.4134-0.2209-0.7823-0.5563-0.9944-1.028-0.2121-0.4717-0.2169-1.091 0.05141-1.631 0.5806-1.168 1.765-1.481 2.558-1.548l0.0026-2.26e-4 0.00329-3.88e-4c0.5948-0.0807 1.25 0.01207 1.85 0.3327 0.08403 0.04489 0.1532 0.1167 0.2327 0.1712z" fill="#b2ccff"/>
    </g>
</svg>
